<svg width="232" height="232" viewBox="0 0 232 232" fill="none" xmlns="http://www.w3.org/2000/svg">
<path d="M216 116.5C216 172.005 171.005 217 115.5 217C59.9959 217 15.0005 172.005 15.0005 116.5C15.0005 60.9954 59.9959 16 115.5 16C171.005 16 216 60.9954 216 116.5Z" fill="white" stroke="black" stroke-width="4"/>
<path d="M156.054 57.963C160.987 53.0306 168.957 53.0306 173.889 57.963C178.821 62.8954 178.821 70.8654 173.889 75.7978L133.761 115.926L173.889 156.054C178.821 160.987 178.821 168.957 173.889 173.889C168.957 178.821 160.987 178.821 156.054 173.889L115.926 133.761L75.7978 173.889C70.8654 178.821 62.8955 178.821 57.963 173.889C53.0306 168.957 53.0306 160.987 57.963 156.054L98.0913 115.926L57.963 75.7978C53.0306 70.8654 53.0306 62.8955 57.963 57.963C62.8954 53.0306 70.8654 53.0306 75.7978 57.963L115.926 98.0913L156.054 57.963Z" fill="black"/>
</svg>
