<svg width="11" height="11" viewBox="0 0 11 11" fill="none" xmlns="http://www.w3.org/2000/svg">
<path d="M8.37436 0.596189C8.76548 0.205071 9.39745 0.205071 9.78857 0.596189C10.1797 0.987308 10.1797 1.61928 9.78857 2.0104L6.60659 5.19238L9.78857 8.37436C10.1797 8.76548 10.1797 9.39746 9.78857 9.78858C9.39745 10.1797 8.76548 10.1797 8.37436 9.78858L5.19238 6.6066L2.0104 9.78858C1.61928 10.1797 0.987302 10.1797 0.596184 9.78858C0.205066 9.39746 0.205065 8.76548 0.596184 8.37436L3.77816 5.19238L0.596183 2.0104C0.205065 1.61928 0.205065 0.987308 0.596183 0.59619C0.987302 0.205072 1.61928 0.205071 2.0104 0.59619L5.19238 3.77817L8.37436 0.596189Z" fill="black"/>
</svg>
